HIERARCHY
ROOT hip
{
  OFFSET 0.00112043 5.09927 -9.65472
  CHANNELS 6 Xposition Yposition Zposition Zrotation Xrotation Yrotation
  JOINT abdomen
  {
    OFFSET 0 -1.186 -1.5018
    CHANNELS 3 Zrotation Xrotation Yrotation
    JOINT abdomen2
    {
      OFFSET 0 9.964 0.2134
      CHANNELS 3 Zrotation Xrotation Yrotation
      JOINT chest
      {
        OFFSET 0 13.134 -3.2573
        CHANNELS 3 Zrotation Xrotation Yrotation
        JOINT neck
        {
          OFFSET 0 20.686 -1.6905
          CHANNELS 3 Zrotation Xrotation Yrotation
          JOINT head
          {
            OFFSET 0 7.238 -0.1237
            CHANNELS 3 Zrotation Xrotation Yrotation
            End Site
            {
              OFFSET 0 0 0
            }
          }
        }
        JOINT lCollar
        {
          OFFSET 1.7069 20.075 5.0056
          CHANNELS 3 Zrotation Xrotation Yrotation
          JOINT lShldr
          {
            OFFSET 13.6458 -0.047 -4.849
            CHANNELS 3 Zrotation Xrotation Yrotation
            JOINT lForeArm
            {
              OFFSET 28.3255 -0.9759 2.2888
              CHANNELS 3 Zrotation Xrotation Yrotation
              JOINT lHand
              {
                OFFSET 22.1583 -0.53 10.8316
                CHANNELS 3 Zrotation Xrotation Yrotation
                JOINT lThumb1
                {
                  OFFSET 0.786 0.112 2.5817
                  CHANNELS 3 Zrotation Xrotation Yrotation
                  JOINT lThumb2
                  {
                    OFFSET 0.3601 -0.878 4.2331
                    CHANNELS 3 Zrotation Xrotation Yrotation
                    JOINT lThumb2_End
                    {
                      OFFSET 1.8127 -1.216 2.2227
                      CHANNELS 3 Zrotation Xrotation Yrotation
                      End Site
                      {
                        OFFSET 0.0181 -0.0122 0.0222
                      }
                    }
                  }
                }
                JOINT lCarpal1
                {
                  OFFSET 0.9571 1.114 1.7695
                  CHANNELS 3 Zrotation Xrotation Yrotation
                  JOINT lIndex1
                  {
                    OFFSET 4.1246 0.487 4.1451
                    CHANNELS 3 Zrotation Xrotation Yrotation
                    JOINT lIndex2
                    {
                      OFFSET 3.4052 -1.454 2.7682
                      CHANNELS 3 Zrotation Xrotation Yrotation
                      JOINT lIndex2_End
                      {
                        OFFSET 1.4531 -1.795 1.2713
                        CHANNELS 3 Zrotation Xrotation Yrotation
                        End Site
                        {
                          OFFSET 0.0145 -0.0179 0.0127
                        }
                      }
                    }
                  }
                  JOINT lMid1
                  {
                    OFFSET 5.6954 0.21 2.1184
                    CHANNELS 3 Zrotation Xrotation Yrotation
                    JOINT lMid2
                    {
                      OFFSET 3.9766 -1.54 2.3863
                      CHANNELS 3 Zrotation Xrotation Yrotation
                      JOINT lMid2_End
                      {
                        OFFSET 1.4042 -1.926 1.125
                        CHANNELS 3 Zrotation Xrotation Yrotation
                        End Site
                        {
                          OFFSET 0.014 -0.0193 0.0113
                        }
                      }
                    }
                  }
                }
                JOINT lCarpal2
                {
                  OFFSET 2.0956 0.66 -0.3894
                  CHANNELS 3 Zrotation Xrotation Yrotation
                  JOINT lRing1
                  {
                    OFFSET 5.0395 -0.09 2.4971
                    CHANNELS 3 Zrotation Xrotation Yrotation
                    JOINT lRing2
                    {
                      OFFSET 3.7921 -1.552 1.4806
                      CHANNELS 3 Zrotation Xrotation Yrotation
                      JOINT lRing2_End
                      {
                        OFFSET 1.4655 -1.808 0.9609
                        CHANNELS 3 Zrotation Xrotation Yrotation
                        End Site
                        {
                          OFFSET 0.0147 -0.0181 0.0096
                        }
                      }
                    }
                  }
                  JOINT lPinky1
                  {
                    OFFSET 4.9141 -1.269 0.3591
                    CHANNELS 3 Zrotation Xrotation Yrotation
                    JOINT lPinky2
                    {
                      OFFSET 3.1477 -1.685 0.8462
                      CHANNELS 3 Zrotation Xrotation Yrotation
                      JOINT lPinky2_End
                      {
                        OFFSET 0.8055 -1.585 0.7955
                        CHANNELS 3 Zrotation Xrotation Yrotation
                        End Site
                        {
                          OFFSET 0.0081 -0.0158 0.008
                        }
                      }
                    }
                  }
                }
              }
            }
          }
        }
        JOINT rCollar
        {
          OFFSET -1.7069 20.075 5.0056
          CHANNELS 3 Zrotation Xrotation Yrotation
          JOINT rShldr
          {
            OFFSET -13.6458 -0.047 -4.849
            CHANNELS 3 Zrotation Xrotation Yrotation
            JOINT rForeArm
            {
              OFFSET -28.3255 -0.9759 2.2888
              CHANNELS 3 Zrotation Xrotation Yrotation
              JOINT rHand
              {
                OFFSET -22.1583 -0.53 10.8316
                CHANNELS 3 Zrotation Xrotation Yrotation
                JOINT rThumb1
                {
                  OFFSET -0.786 0.112 2.5817
                  CHANNELS 3 Zrotation Xrotation Yrotation
                  JOINT rThumb2
                  {
                    OFFSET -0.3601 -0.878 4.2331
                    CHANNELS 3 Zrotation Xrotation Yrotation
                    JOINT rThumb2_End
                    {
                      OFFSET -1.8127 -1.216 2.2227
                      CHANNELS 3 Zrotation Xrotation Yrotation
                      End Site
                      {
                        OFFSET -0.0181 -0.0122 0.0222
                      }
                    }
                  }
                }
                JOINT rCarpal1
                {
                  OFFSET -0.9571 1.114 1.7695
                  CHANNELS 3 Zrotation Xrotation Yrotation
                  JOINT rIndex1
                  {
                    OFFSET -4.1246 0.487 4.1451
                    CHANNELS 3 Zrotation Xrotation Yrotation
                    JOINT rIndex2
                    {
                      OFFSET -3.4052 -1.454 2.7682
                      CHANNELS 3 Zrotation Xrotation Yrotation
                      JOINT rIndex2_End
                      {
                        OFFSET -1.4531 -1.795 1.2713
                        CHANNELS 3 Zrotation Xrotation Yrotation
                        End Site
                        {
                          OFFSET -0.0145 -0.018 0.0127
                        }
                      }
                    }
                  }
                  JOINT rMid1
                  {
                    OFFSET -5.6954 0.21 2.1184
                    CHANNELS 3 Zrotation Xrotation Yrotation
                    JOINT rMid2
                    {
                      OFFSET -3.9766 -1.54 2.3863
                      CHANNELS 3 Zrotation Xrotation Yrotation
                      JOINT rMid2_End
                      {
                        OFFSET -1.4042 -1.926 1.125
                        CHANNELS 3 Zrotation Xrotation Yrotation
                        End Site
                        {
                          OFFSET -0.014 -0.0193 0.0113
                        }
                      }
                    }
                  }
                }
                JOINT rCarpal2
                {
                  OFFSET -2.0956 0.66 -0.3894
                  CHANNELS 3 Zrotation Xrotation Yrotation
                  JOINT rRing1
                  {
                    OFFSET -5.0395 -0.09 2.4971
                    CHANNELS 3 Zrotation Xrotation Yrotation
                    JOINT rRing2
                    {
                      OFFSET -3.7921 -1.552 1.4806
                      CHANNELS 3 Zrotation Xrotation Yrotation
                      JOINT rRing2_End
                      {
                        OFFSET -1.4655 -1.808 0.9609
                        CHANNELS 3 Zrotation Xrotation Yrotation
                        End Site
                        {
                          OFFSET -0.0147 -0.0181 0.0096
                        }
                      }
                    }
                  }
                  JOINT rPinky1
                  {
                    OFFSET -4.9141 -1.269 0.3592
                    CHANNELS 3 Zrotation Xrotation Yrotation
                    JOINT rPinky2
                    {
                      OFFSET -3.1477 -1.685 0.8462
                      CHANNELS 3 Zrotation Xrotation Yrotation
                      JOINT rPinky2_End
                      {
                        OFFSET -0.8055 -1.585 0.7955
                        CHANNELS 3 Zrotation Xrotation Yrotation
                        End Site
                        {
                          OFFSET -0.0081 -0.0158 0.008
                        }
                      }
                    }
                  }
                }
              }
            }
          }
        }
      }
    }
  }
  JOINT lThigh
  {
    OFFSET 8.367 -8.2066 0.5982
    CHANNELS 3 Zrotation Xrotation Yrotation
    JOINT lShin
    {
      OFFSET 2.1923 -43.463 -0.4932
      CHANNELS 3 Zrotation Xrotation Yrotation
      JOINT lFoot
      {
        OFFSET 0.7333 -45.8593 -2.6451
        CHANNELS 3 Zrotation Xrotation Yrotation
        End Site
        {
          OFFSET 2.6618 -4.2699 12.3931
        }
      }
    }
  }
  JOINT rThigh
  {
    OFFSET -8.367 -8.2066 0.5982
    CHANNELS 3 Zrotation Xrotation Yrotation
    JOINT rShin
    {
      OFFSET -2.1923 -43.463 -0.4931
      CHANNELS 3 Zrotation Xrotation Yrotation
      JOINT rFoot
      {
        OFFSET -0.7333 -45.8593 -2.6451
        CHANNELS 3 Zrotation Xrotation Yrotation
        End Site
        {
          OFFSET -2.6618 -4.2699 12.3931
        }
      }
    }
  }
}
MOTION
Frames:	4
Frame Time:	0.0333333
0 91.7903 2.51682 0 0 -0 0 0 -0 0 0 -0 0 0 -0 0 0 -0 0 0 -0 0 0 -0 1.66051 0.0835086 5.75766 -0.0175111 0.895433 15.7816 7.95139e-016 -1.98785e-016 -0 5.46658e-016 -3.97569e-016 -0 5.96354e-016 0 -0 3.97569e-016 1.98785e-016 9.54166e-015 1.49089e-016 -3.97569e-016 -0 6.4605e-016 0 3.18055e-015 5.96354e-016 0 3.18055e-015 8.94531e-016 -1.98785e-016 6.36111e-015 6.4605e-016 0 3.18055e-015 5.96354e-016 0 3.18055e-015 8.94531e-016 -1.98785e-016 6.36111e-015 1.49089e-016 -3.97569e-016 -0 6.4605e-016 0 3.18055e-015 5.96354e-016 0 3.18055e-015 8.94531e-016 -1.98785e-016 6.36111e-015 6.4605e-016 0 3.18055e-015 5.96354e-016 0 3.18055e-015 8.94531e-016 -1.98785e-016 6.36111e-015 0 0 -0 -1.4496 0.0636048 -5.0245 -1.74811 1.20616 -16.8394 -1.19271e-015 1.98785e-016 -3.18055e-015 -3.97569e-016 1.98785e-016 -3.18055e-015 -2.98177e-016 1.98785e-016 -3.18055e-015 -2.98177e-016 3.97569e-016 -0 4.96962e-016 0 -6.36111e-015 -9.93923e-017 3.97569e-016 -0 -8.94531e-016 5.96354e-016 -0 -3.97569e-016 3.97569e-016 -0 -9.93923e-017 3.97569e-016 -0 -8.94531e-016 5.96354e-016 -0 -3.97569e-016 3.97569e-016 -0 4.96962e-016 0 -6.36111e-015 -9.93923e-017 3.97569e-016 -0 -8.94531e-016 5.96354e-016 -0 -3.97569e-016 3.97569e-016 -0 -9.93923e-017 3.97569e-016 -0 -8.94531e-016 5.96354e-016 -0 -3.97569e-016 3.97569e-016 -0 -4.66111 -0.998717 0.12318 0.00986924 1.54847 0.176523 4.65186 -0.572283 -0.254274 4.66111 -0.998765 -0.123176 -0.00986867 1.54869 -0.176537 -4.65186 -0.572453 0.25427 
42.3113 34.9108 37.1855 -179.996 51.0033 2.93212e-011 -0.169935 -1.41777 0.139929 -0.33656 -2.83595 0.275777 -0.33656 -2.83595 0.275777 -2.74119e-006 15.9926 -1.1899e-006 1.45275e-007 10.996 -8.46814e-008 6.16073 1.44716 17.8843 -17.467 57.9254 35.9559 37.2695 44.0451 -59.977 -0.0808492 -1.30216 8.31972 -3.18055e-015 -6.36111e-015 -6.36111e-015 -1.59028e-015 -3.18055e-015 -6.36111e-015 1.62135e-006 3.35096e-007 -3.79271e-007 -3.53113e-031 -3.18055e-015 -6.36111e-015 6.36111e-015 0 -0 -3.18055e-015 0 -3.18055e-015 1.62135e-006 3.35096e-007 -3.79271e-007 6.36111e-015 0 -0 -3.18055e-015 0 -3.18055e-015 1.62135e-006 3.35096e-007 -3.79271e-007 -3.53113e-031 -3.18055e-015 -6.36111e-015 6.36111e-015 0 -0 -3.18055e-015 0 -3.18055e-015 1.62135e-006 3.35096e-007 -3.79271e-007 6.36111e-015 0 -0 -3.18055e-015 0 -3.18055e-015 1.62135e-006 3.35096e-007 -3.79271e-007 -6.18127 1.45137 -17.9018 17.7905 57.7974 -35.4992 -37.8683 43.0293 59.4449 0.0691714 -1.07445 -8.34633 -8.15006e-007 1.46074e-007 1.94488e-007 -8.15006e-007 1.46074e-007 1.94488e-007 -8.15006e-007 1.46074e-007 1.94488e-007 -4.77083e-015 0 -0 -8.15006e-007 1.46074e-007 1.94488e-007 -8.15006e-007 1.46074e-007 1.94488e-007 -8.15006e-007 1.46074e-007 1.94488e-007 -8.15006e-007 1.46074e-007 1.94488e-007 -8.15006e-007 1.46074e-007 1.94488e-007 -8.15006e-007 1.46074e-007 1.94488e-007 -4.77083e-015 0 -0 -8.15006e-007 1.46074e-007 1.94488e-007 -8.15006e-007 1.46074e-007 1.94488e-007 -8.15006e-007 1.46074e-007 1.94488e-007 -8.15006e-007 1.46074e-007 1.94488e-007 -8.15006e-007 1.46074e-007 1.94488e-007 -8.15006e-007 1.46074e-007 1.94488e-007 37.8512 31.5451 28.9072 64.4105 37.6791 -63.3493 -16.6692 20.9739 -11.0791 -37.3478 31.8803 -28.9668 -63.8741 37.3561 63.0317 17.0425 21.1568 10.3535 
42.3091 34.9127 37.1839 -179.996 51.0054 8.95158e-011 -0.170279 -1.4841 0.139326 -0.337115 -2.96858 0.274376 -0.337115 -2.96859 0.274376 4.76274e-006 15.9935 -9.02452e-007 -1.80084e-007 12.2665 1.70773e-007 6.2289 1.54649 18.1715 -17.448 57.9301 35.933 37.2695 44.0451 -59.977 -0.00870068 -1.06267 8.15149 1.14927e-006 -1.45047e-006 -3.66461e-007 -1.14927e-006 1.45047e-006 3.66461e-007 5.29669e-031 3.18055e-015 -9.54166e-015 3.18055e-015 6.36111e-015 3.18055e-015 1.14927e-006 -1.45047e-006 -3.66461e-007 -1.14927e-006 1.45047e-006 3.66461e-007 -3.18055e-015 3.18055e-015 -9.54166e-015 1.14927e-006 -1.45047e-006 -3.66461e-007 -1.14927e-006 1.45047e-006 3.66461e-007 -3.18055e-015 3.18055e-015 -9.54166e-015 3.18055e-015 6.36111e-015 3.18055e-015 1.14927e-006 -1.45047e-006 -3.66461e-007 -1.14927e-006 1.45047e-006 3.66461e-007 -3.18055e-015 3.18055e-015 -9.54166e-015 1.14927e-006 -1.45047e-006 -3.66461e-007 -1.14927e-006 1.45047e-006 3.66461e-007 -3.18055e-015 3.18055e-015 -9.54166e-015 -6.24105 1.54282 -18.1732 17.7905 57.7974 -35.4992 -37.8683 43.0293 59.4449 -0.00207209 -0.832122 -8.18036 -0 -6.36111e-015 -0 8.14429e-007 -1.48106e-007 -1.9525e-007 -3.18055e-015 0 -0 -0 -3.18055e-015 -0 1.59028e-015 0 6.36111e-015 8.14429e-007 -1.48106e-007 -1.9525e-007 -4.77083e-015 -3.18055e-015 -0 1.59028e-015 0 6.36111e-015 8.14429e-007 -1.48106e-007 -1.9525e-007 -4.77083e-015 -3.18055e-015 -0 -0 -3.18055e-015 -0 1.59028e-015 0 6.36111e-015 8.14429e-007 -1.48106e-007 -1.9525e-007 -4.77083e-015 -3.18055e-015 -0 1.59028e-015 0 6.36111e-015 8.14429e-007 -1.48106e-007 -1.9525e-007 -4.77083e-015 -3.18055e-015 -0 38.3526 31.3759 29.2016 64.4133 37.6804 -63.3627 -16.0417 21.0879 -11.7293 -38.0496 31.6437 -29.3255 -63.8763 37.3575 63.0478 16.1615 21.3135 11.2606 
42.3069 34.9142 37.1824 -179.996 51.0054 8.95158e-011 -0.170621 -1.55055 0.138719 -0.337671 -3.10146 0.272967 -0.337671 -3.10146 0.272967 -5.23898e-006 15.9934 4.90573e-006 -3.96534e-008 13.5395 6.37217e-008 6.29657 1.64612 18.4585 -17.429 57.9348 35.9099 37.2695 44.0451 -59.977 0.0641529 -0.823364 7.98295 -1.59028e-015 6.36111e-015 3.18055e-015 -3.18055e-015 9.54166e-015 -0 -1.59028e-015 0 3.18055e-015 1.59028e-015 3.18055e-015 3.18055e-015 0 9.54166e-015 -0 -1.59028e-015 3.18055e-015 3.18055e-015 -3.18055e-015 6.36111e-015 -3.18055e-015 0 9.54166e-015 -0 -1.59028e-015 3.18055e-015 3.18055e-015 -3.18055e-015 6.36111e-015 -3.18055e-015 1.59028e-015 3.18055e-015 3.18055e-015 0 9.54166e-015 -0 -1.59028e-015 3.18055e-015 3.18055e-015 -3.18055e-015 6.36111e-015 -3.18055e-015 0 9.54166e-015 -0 -1.59028e-015 3.18055e-015 3.18055e-015 -3.18055e-015 6.36111e-015 -3.18055e-015 -6.30041 1.6345 -18.4446 17.7905 57.7974 -35.4992 -37.8683 43.0293 59.4449 -0.0740118 -0.589979 -8.01407 -1.20043e-006 -1.68708e-006 -9.01265e-007 -1.59798e-006 -1.49771e-007 -3.05932e-006 -2.10604e-006 -5.92108e-008 -2.48287e-006 -1.76556e-031 3.18055e-015 3.18055e-015 -1.20043e-006 -1.68708e-006 -9.01265e-007 -1.59798e-006 -1.49771e-007 -3.05932e-006 -2.10604e-006 -5.92108e-008 -2.48287e-006 -1.20043e-006 -1.68708e-006 -9.01265e-007 -1.59798e-006 -1.49771e-007 -3.05932e-006 -2.10604e-006 -5.92108e-008 -2.48287e-006 -1.76556e-031 3.18055e-015 3.18055e-015 -1.20043e-006 -1.68708e-006 -9.01265e-007 -1.59798e-006 -1.49771e-007 -3.05932e-006 -2.10604e-006 -5.92108e-008 -2.48287e-006 -1.20043e-006 -1.68708e-006 -9.01265e-007 -1.59798e-006 -1.49771e-007 -3.05932e-006 -2.10604e-006 -5.92108e-008 -2.48287e-006 38.8546 31.2089 29.4974 64.4161 37.6818 -63.3762 -15.412 21.1952 -12.3815 -38.7522 31.4104 -29.6871 -63.8787 37.3589 63.0643 15.276 21.4575 12.1721 
